<svg width="158" height="29" viewBox="0 0 158 29" fill="none" xmlns="http://www.w3.org/2000/svg">
<path d="M16.1719 0.722789C15.9483 0.281391 15.4957 0 15.005 0C14.5142 0 14.0616 0.281391 13.8381 0.722789L9.82477 8.67898L1.10566 10.0804C0.620358 10.1577 0.216847 10.5053 0.0641675 10.9798C-0.0885123 11.4543 0.0369034 11.9729 0.380433 12.326L6.61849 18.6435L5.24438 27.466C5.16804 27.957 5.36979 28.4536 5.76785 28.746C6.16591 29.0385 6.68938 29.0826 7.13106 28.8564L15.005 24.8066L22.8734 28.8564C23.3097 29.0826 23.8386 29.0385 24.2367 28.746C24.6347 28.4536 24.8365 27.9625 24.7601 27.466L23.3806 18.6435L29.6186 12.326C29.9676 11.9729 30.0876 11.4543 29.9349 10.9798C29.7822 10.5053 29.3841 10.1577 28.8934 10.0804L20.1797 8.67898L16.1719 0.722789Z" fill="black"/>
<path d="M48.1719 0.722789C47.9483 0.281391 47.4957 0 47.005 0C46.5142 0 46.0616 0.281391 45.8381 0.722789L41.8248 8.67898L33.1057 10.0804C32.6204 10.1577 32.2168 10.5053 32.0642 10.9798C31.9115 11.4543 32.0369 11.9729 32.3804 12.326L38.6185 18.6435L37.2444 27.466C37.168 27.957 37.3698 28.4536 37.7678 28.746C38.1659 29.0385 38.6894 29.0826 39.1311 28.8564L47.005 24.8066L54.8734 28.8564C55.3097 29.0826 55.8386 29.0385 56.2367 28.746C56.6347 28.4536 56.8365 27.9625 56.7601 27.466L55.3806 18.6435L61.6186 12.326C61.9676 11.9729 62.0876 11.4543 61.9349 10.9798C61.7822 10.5053 61.3841 10.1577 60.8934 10.0804L52.1797 8.67898L48.1719 0.722789Z" fill="black"/>
<path d="M143 0C143.491 0 143.944 0.281391 144.167 0.722789L148.175 8.67898L156.894 10.0804C157.38 10.1577 157.783 10.5053 157.936 10.9798C158.089 11.4543 157.963 11.9729 157.62 12.326L151.376 18.6435L152.756 27.466C152.832 27.957 152.63 28.4536 152.232 28.746C151.834 29.0385 151.305 29.0826 150.869 28.8564L143 24.8066L135.132 28.8564C134.696 29.0826 134.167 29.0385 133.769 28.746C133.371 28.4536 133.169 27.9625 133.245 27.466L134.619 18.6435L128.381 12.326C128.032 11.9729 127.912 11.4543 128.065 10.9798C128.218 10.5053 128.616 10.1577 129.107 10.0804L137.826 8.67898L141.839 0.722789C142.063 0.281391 142.515 0 143.006 0H143ZM143 4.23742L139.849 10.4832C139.658 10.8584 139.303 11.1232 138.889 11.1894L132.046 12.2929L136.942 17.2531C137.237 17.5511 137.373 17.9759 137.308 18.3953L136.228 25.3197L142.406 22.1416C142.777 21.9485 143.219 21.9485 143.595 22.1416L149.773 25.3197L148.693 18.3953C148.628 17.9759 148.764 17.5511 149.059 17.2531L153.955 12.2929L147.112 11.1894C146.698 11.1232 146.343 10.8584 146.152 10.4832L143 4.23742Z" fill="black"/>
<path d="M79.0005 0C79.4912 0 79.9438 0.281391 80.1674 0.722789L84.1752 8.67898L92.8943 10.0804C93.3796 10.1577 93.7832 10.5053 93.9358 10.9798C94.0885 11.4543 93.9631 11.9729 93.6196 12.326L87.3761 18.6435L88.7556 27.466C88.832 27.957 88.6302 28.4536 88.2321 28.746C87.8341 29.0385 87.3052 29.0826 86.8689 28.8564L79.0005 24.8066L71.132 28.8564C70.6958 29.0826 70.1669 29.0385 69.7688 28.746C69.3707 28.4536 69.169 27.9625 69.2453 27.466L70.6194 18.6435L64.3814 12.326C64.0324 11.9729 63.9124 11.4543 64.0651 10.9798C64.2178 10.5053 64.6159 10.1577 65.1066 10.0804L73.8257 8.67898L77.839 0.722789C78.0626 0.281391 78.5152 0 79.0059 0H79.0005ZM79.0005 4.23742L75.8487 10.4832C75.6579 10.8584 75.3034 11.1232 74.889 11.1894L68.0457 12.2929L72.9424 17.2531C73.2368 17.5511 73.3731 17.9759 73.3077 18.3953L72.228 25.3197L78.4061 22.1416C78.7769 21.9485 79.2186 21.9485 79.5948 22.1416L85.7729 25.3197L84.6932 18.3953C84.6278 17.9759 84.7641 17.5511 85.0586 17.2531L89.9553 12.2929L83.1119 11.1894C82.6975 11.1232 82.3431 10.8584 82.1522 10.4832L79.0005 4.23742Z" fill="black"/>
<path d="M111 0C111.491 0 111.944 0.281391 112.167 0.722789L116.175 8.67898L124.894 10.0804C125.38 10.1577 125.783 10.5053 125.936 10.9798C126.089 11.4543 125.963 11.9729 125.62 12.326L119.376 18.6435L120.756 27.466C120.832 27.957 120.63 28.4536 120.232 28.746C119.834 29.0385 119.305 29.0826 118.869 28.8564L111 24.8066L103.132 28.8564C102.696 29.0826 102.167 29.0385 101.769 28.746C101.371 28.4536 101.169 27.9625 101.245 27.466L102.619 18.6435L96.3814 12.326C96.0324 11.9729 95.9124 11.4543 96.0651 10.9798C96.2178 10.5053 96.6159 10.1577 97.1066 10.0804L105.826 8.67898L109.839 0.722789C110.063 0.281391 110.515 0 111.006 0H111ZM111 4.23742L107.849 10.4832C107.658 10.8584 107.303 11.1232 106.889 11.1894L100.046 12.2929L104.942 17.2531C105.237 17.5511 105.373 17.9759 105.308 18.3953L104.228 25.3197L110.406 22.1416C110.777 21.9485 111.219 21.9485 111.595 22.1416L117.773 25.3197L116.693 18.3953C116.628 17.9759 116.764 17.5511 117.059 17.2531L121.955 12.2929L115.112 11.1894C114.698 11.1232 114.343 10.8584 114.152 10.4832L111 4.23742Z" fill="black"/>
</svg>
