<svg width="158" height="29" viewBox="0 0 158 29" fill="none" xmlns="http://www.w3.org/2000/svg">
<path d="M16.1719 0.722789C15.9483 0.281391 15.4957 0 15.005 0C14.5142 0 14.0616 0.281391 13.8381 0.722789L9.82477 8.67898L1.10566 10.0804C0.620358 10.1577 0.216847 10.5053 0.0641675 10.9798C-0.0885123 11.4543 0.0369034 11.9729 0.380433 12.326L6.61849 18.6435L5.24438 27.466C5.16804 27.957 5.36979 28.4536 5.76785 28.746C6.16591 29.0385 6.68938 29.0826 7.13106 28.8564L15.005 24.8066L22.8734 28.8564C23.3097 29.0826 23.8386 29.0385 24.2367 28.746C24.6347 28.4536 24.8365 27.9625 24.7601 27.466L23.3806 18.6435L29.6186 12.326C29.9676 11.9729 30.0876 11.4543 29.9349 10.9798C29.7822 10.5053 29.3841 10.1577 28.8934 10.0804L20.1797 8.67898L16.1719 0.722789Z" fill="black"/>
<path d="M48.1719 0.722789C47.9483 0.281391 47.4957 0 47.005 0C46.5142 0 46.0616 0.281391 45.8381 0.722789L41.8248 8.67898L33.1057 10.0804C32.6204 10.1577 32.2168 10.5053 32.0642 10.9798C31.9115 11.4543 32.0369 11.9729 32.3804 12.326L38.6185 18.6435L37.2444 27.466C37.168 27.957 37.3698 28.4536 37.7678 28.746C38.1659 29.0385 38.6894 29.0826 39.1311 28.8564L47.005 24.8066L54.8734 28.8564C55.3097 29.0826 55.8386 29.0385 56.2367 28.746C56.6347 28.4536 56.8365 27.9625 56.7601 27.466L55.3806 18.6435L61.6186 12.326C61.9676 11.9729 62.0876 11.4543 61.9349 10.9798C61.7822 10.5053 61.3841 10.1577 60.8934 10.0804L52.1797 8.67898L48.1719 0.722789Z" fill="black"/>
<path d="M80.1719 0.722789C79.9483 0.281391 79.4957 0 79.005 0C78.5142 0 78.0616 0.281391 77.8381 0.722789L73.8248 8.67898L65.1057 10.0804C64.6204 10.1577 64.2168 10.5053 64.0642 10.9798C63.9115 11.4543 64.0369 11.9729 64.3804 12.326L70.6185 18.6435L69.2444 27.466C69.168 27.957 69.3698 28.4536 69.7678 28.746C70.1659 29.0385 70.6894 29.0826 71.1311 28.8564L79.005 24.8066L86.8734 28.8564C87.3097 29.0826 87.8386 29.0385 88.2367 28.746C88.6347 28.4536 88.8365 27.9625 88.7601 27.466L87.3806 18.6435L93.6186 12.326C93.9676 11.9729 94.0876 11.4543 93.9349 10.9798C93.7822 10.5053 93.3841 10.1577 92.8934 10.0804L84.1797 8.67898L80.1719 0.722789Z" fill="black"/>
<path d="M112.172 0.722789C111.948 0.281391 111.496 0 111.005 0C110.514 0 110.062 0.281391 109.838 0.722789L105.825 8.67898L97.1057 10.0804C96.6204 10.1577 96.2168 10.5053 96.0642 10.9798C95.9115 11.4543 96.0369 11.9729 96.3804 12.326L102.618 18.6435L101.244 27.466C101.168 27.957 101.37 28.4536 101.768 28.746C102.166 29.0385 102.689 29.0826 103.131 28.8564L111.005 24.8066L118.873 28.8564C119.31 29.0826 119.839 29.0385 120.237 28.746C120.635 28.4536 120.836 27.9625 120.76 27.466L119.381 18.6435L125.619 12.326C125.968 11.9729 126.088 11.4543 125.935 10.9798C125.782 10.5053 125.384 10.1577 124.893 10.0804L116.18 8.67898L112.172 0.722789Z" fill="black"/>
<path d="M144.172 0.722789C143.948 0.281391 143.496 0 143.005 0C142.514 0 142.062 0.281391 141.838 0.722789L137.825 8.67898L129.106 10.0804C128.62 10.1577 128.217 10.5053 128.064 10.9798C127.911 11.4543 128.037 11.9729 128.38 12.326L134.618 18.6435L133.244 27.466C133.168 27.957 133.37 28.4536 133.768 28.746C134.166 29.0385 134.689 29.0826 135.131 28.8564L143.005 24.8066L150.873 28.8564C151.31 29.0826 151.839 29.0385 152.237 28.746C152.635 28.4536 152.836 27.9625 152.76 27.466L151.381 18.6435L157.619 12.326C157.968 11.9729 158.088 11.4543 157.935 10.9798C157.782 10.5053 157.384 10.1577 156.893 10.0804L148.18 8.67898L144.172 0.722789Z" fill="black"/>
</svg>
